<?xml version="1.0" standalone="no"?>
<!DOCTYPE svg PUBLIC "-//W3C//DTD SVG 20010904//EN"
 "http://www.w3.org/TR/2001/REC-SVG-20010904/DTD/svg10.dtd">
<svg version="1.0" xmlns="http://www.w3.org/2000/svg"
 width="1280.000000pt" height="1280.000000pt" viewBox="0 0 1280.000000 1280.000000"
 preserveAspectRatio="xMidYMid meet">
<metadata>
Created by potrace 1.15, written by Peter Selinger 2001-2017
</metadata>
<g transform="translate(0.000000,1280.000000) scale(0.100000,-0.100000)"
fill="#000000" stroke="none">
<path d="M6105 12794 c-658 -40 -1146 -130 -1715 -315 -1356 -443 -2554 -1366
-3353 -2584 -531 -810 -873 -1745 -986 -2695 -40 -328 -46 -441 -45 -810 0
-391 12 -564 60 -900 196 -1381 818 -2622 1810 -3614 868 -868 1917 -1447
3114 -1720 263 -59 538 -102 855 -133 252 -24 858 -24 1110 0 317 31 592 74
855 133 1055 240 1981 712 2805 1428 233 203 574 559 781 816 715 887 1176
1951 1338 3090 48 338 60 509 60 905 0 372 -6 477 -45 805 -195 1641 -1053
3164 -2371 4213 -1001 796 -2160 1254 -3463 1367 -122 11 -700 21 -810 14z
m740 -55 c1384 -94 2674 -629 3725 -1543 154 -134 416 -392 554 -546 959
-1068 1512 -2371 1616 -3805 15 -208 12 -730 -5 -940 -91 -1109 -435 -2108
-1036 -3012 -1010 -1518 -2607 -2529 -4394 -2782 -505 -71 -1060 -82 -1565
-31 -1416 145 -2734 762 -3766 1762 -1039 1009 -1704 2338 -1878 3758 -33 263
-38 346 -43 698 -8 527 25 910 118 1367 227 1119 738 2132 1505 2985 975 1083
2257 1785 3699 2024 443 74 989 98 1470 65z"/>
<path d="M6025 12664 c-22 -2 -98 -9 -170 -14 -1768 -144 -3427 -1073 -4497
-2516 -666 -900 -1077 -1953 -1197 -3074 -42 -388 -42 -932 0 -1320 175 -1630
967 -3112 2224 -4160 774 -646 1710 -1102 2695 -1314 236 -51 476 -87 775
-118 162 -17 928 -17 1090 0 872 90 1561 288 2290 657 1197 605 2178 1590
2774 2785 357 716 555 1410 642 2250 17 166 23 772 10 966 -28 404 -82 747
-176 1124 -319 1278 -1051 2442 -2070 3290 -869 723 -1892 1191 -3010 1374
-99 16 -281 40 -445 57 -100 10 -852 21 -935 13z m965 -48 c797 -81 1496 -282
2200 -632 1741 -867 2996 -2531 3345 -4433 79 -430 100 -681 100 -1161 -1
-411 -10 -550 -61 -899 -264 -1836 -1347 -3462 -2954 -4438 -735 -446 -1612
-748 -2460 -847 -303 -36 -395 -41 -760 -41 -365 0 -457 5 -760 41 -764 89
-1556 344 -2243 722 -1611 887 -2757 2445 -3116 4237 -74 372 -110 707 -118
1110 -20 1015 185 1950 627 2860 719 1482 2022 2635 3581 3170 484 166 1014
277 1504 315 77 5 158 12 180 14 104 10 790 -3 935 -18z"/>
<path d="M5960 12549 c-1928 -137 -3669 -1166 -4733 -2795 -535 -818 -851
-1724 -964 -2759 -25 -230 -25 -960 0 -1190 133 -1217 548 -2259 1269 -3186
296 -381 707 -791 1087 -1087 868 -675 1889 -1103 2965 -1241 312 -41 406 -46
816 -46 410 0 504 5 816 46 1076 138 2097 566 2965 1241 380 296 791 706 1087
1087 698 898 1129 1954 1256 3081 49 434 49 962 0 1400 -181 1626 -1010 3112
-2309 4142 -973 770 -2138 1219 -3395 1308 -168 11 -691 11 -860 -1z m1040
-193 c341 -39 602 -85 905 -162 1666 -425 3103 -1598 3869 -3159 315 -640 502
-1299 582 -2045 22 -206 30 -751 15 -975 -84 -1238 -524 -2380 -1282 -3331
-994 -1246 -2404 -2036 -3969 -2223 -254 -31 -435 -41 -720 -41 -466 0 -874
44 -1310 141 -1749 388 -3245 1562 -4051 3179 -355 713 -555 1457 -610 2275
-15 220 -6 777 16 980 107 1003 421 1887 960 2700 887 1339 2262 2266 3820
2574 235 47 562 90 790 105 158 10 846 -3 985 -18z"/>
<path d="M6260 12093 c-3 -64 1 -760 7 -1205 l6 -578 133 0 133 0 -5 723 c-2
397 -7 800 -10 895 l-6 172 -129 0 c-71 0 -129 -3 -129 -7z"/>
<path d="M6925 12037 c-11 -80 -65 -581 -62 -583 1 -1 41 -6 88 -9 l85 -7 32
298 c18 165 32 304 32 311 0 7 -24 14 -57 18 -32 3 -70 8 -85 10 -25 4 -27 1
-33 -38z"/>
<path d="M5735 12061 c-39 -6 -40 -7 -37 -41 5 -73 61 -583 64 -586 5 -4 161
16 167 22 2 2 -10 138 -28 302 -17 163 -31 300 -31 305 0 8 -75 7 -135 -2z"/>
<path d="M5181 11974 c-36 -8 -65 -15 -67 -17 -3 -3 125 -600 131 -605 5 -6
140 19 156 29 9 5 -3 80 -52 308 -72 340 -54 310 -168 285z"/>
<path d="M7495 11978 c-12 -35 -126 -581 -122 -591 3 -9 157 -50 163 -44 3 3
127 581 128 596 1 14 -43 29 -128 45 -26 5 -38 3 -41 -6z"/>
<path d="M4635 11820 c-44 -15 -79 -31 -78 -36 2 -15 185 -579 189 -583 4 -4
147 40 157 49 7 6 -179 602 -186 599 -1 0 -38 -13 -82 -29z"/>
<path d="M8066 11841 c-2 -3 -31 -91 -65 -196 -33 -104 -76 -236 -95 -292
l-34 -102 80 -27 c44 -14 83 -22 88 -18 8 9 190 565 190 581 0 11 -159 63
-164 54z"/>
<path d="M4091 11613 c-41 -18 -76 -35 -78 -37 -2 -2 53 -132 123 -289 l126
-285 77 35 c42 19 77 36 79 38 3 3 -218 507 -241 549 l-12 23 -74 -34z"/>
<path d="M8603 11623 c-4 -10 -60 -137 -125 -283 l-118 -265 78 -36 c42 -21
80 -34 83 -30 8 8 249 551 249 561 0 8 -133 70 -150 70 -6 0 -14 -8 -17 -17z"/>
<path d="M8679 10638 c-239 -424 -433 -774 -433 -777 1 -3 39 -26 85 -52 46
-26 84 -54 84 -62 0 -7 -459 -682 -1020 -1499 l-1020 -1486 -51 -11 c-281 -63
-378 -412 -170 -609 29 -27 62 -53 74 -56 l22 -7 0 -2449 c0 -2167 2 -2449 15
-2454 13 -5 15 -40 15 -236 l0 -231 133 3 132 3 3 2682 2 2682 22 7 c12 3 45
29 74 56 95 90 135 230 100 351 l-16 56 956 1393 c526 766 994 1448 1041 1515
l83 121 -142 98 c-79 53 -147 100 -151 104 -5 4 175 336 400 736 226 401 415
738 421 750 10 19 3 25 -98 82 -60 34 -114 62 -119 62 -5 0 -204 -347 -442
-772z"/>
<path d="M3557 11331 c-54 -32 -103 -63 -109 -69 -8 -8 120 -234 432 -769 244
-417 447 -762 451 -767 12 -14 230 116 226 134 -5 22 -886 1525 -895 1527 -4
1 -51 -24 -105 -56z"/>
<path d="M9540 10843 c-80 -108 -162 -220 -183 -249 l-37 -52 70 -52 c39 -29
72 -51 74 -49 237 321 366 503 359 509 -24 21 -123 90 -130 90 -4 0 -73 -89
-153 -197z"/>
<path d="M3021 10985 c-43 -32 -61 -51 -57 -61 3 -9 85 -123 182 -255 116
-156 180 -236 188 -231 44 27 125 88 126 95 0 11 -354 490 -366 494 -6 2 -39
-17 -73 -42z"/>
<path d="M9943 10457 l-211 -232 61 -57 c34 -31 65 -57 68 -58 7 0 412 446
417 458 1 5 -26 33 -61 64 l-64 56 -210 -231z"/>
<path d="M2570 10620 l-65 -58 21 -24 c123 -138 397 -438 402 -438 6 0 116
102 120 112 3 6 -276 321 -402 455 -8 9 -27 -3 -76 -47z"/>
<path d="M10343 10072 c-127 -114 -232 -209 -232 -212 0 -3 25 -33 57 -68 l57
-63 230 205 c127 114 230 210 230 214 0 5 -25 36 -55 70 l-55 61 -232 -207z"/>
<path d="M2163 10210 c-29 -32 -53 -62 -52 -66 1 -9 443 -407 458 -412 4 -1
33 26 64 61 l56 64 -231 207 c-127 113 -234 206 -237 205 -3 0 -30 -26 -58
-59z"/>
<path d="M10687 9649 c-169 -123 -247 -185 -243 -195 14 -36 90 -125 103 -120
36 14 492 352 488 362 -5 17 -89 133 -95 133 -3 0 -117 -81 -253 -180z"/>
<path d="M1795 9745 c-40 -57 -45 -69 -34 -80 19 -19 483 -354 490 -355 7 0
99 128 98 138 0 8 -469 349 -492 358 -10 3 -31 -18 -62 -61z"/>
<path d="M10498 8938 c-417 -249 -758 -457 -758 -461 0 -5 29 -58 65 -117 l65
-109 233 139 c894 532 1292 772 1294 778 4 10 -120 215 -132 219 -6 1 -351
-201 -767 -449z"/>
<path d="M1516 9338 c-7 -13 -37 -63 -65 -113 -39 -70 -48 -92 -38 -101 6 -6
340 -199 740 -428 401 -230 743 -426 761 -437 l33 -19 67 116 c36 65 65 118
64 119 -5 4 -1502 861 -1525 874 -19 10 -24 8 -37 -11z"/>
<path d="M11305 8652 c-149 -65 -278 -121 -288 -125 -15 -6 -13 -15 18 -84 20
-42 37 -78 39 -80 3 -3 558 237 567 246 4 3 -9 41 -30 83 l-36 77 -270 -117z"/>
<path d="M1201 8738 c-5 -13 -20 -48 -34 -80 l-25 -56 286 -126 287 -125 36
77 c20 42 34 80 30 83 -6 7 -558 249 -567 249 -2 0 -8 -10 -13 -22z"/>
<path d="M11660 8190 c-63 -21 -195 -64 -293 -95 -115 -36 -177 -61 -174 -68
2 -7 15 -45 28 -85 18 -56 27 -71 39 -66 8 3 140 45 293 94 153 48 280 90 283
93 7 6 -45 167 -54 166 -4 0 -59 -18 -122 -39z"/>
<path d="M981 8130 c-13 -44 -21 -83 -19 -86 11 -10 572 -185 582 -181 16 6
60 147 49 157 -6 7 -572 190 -585 190 -2 0 -15 -36 -27 -80z"/>
<path d="M11632 7597 c-161 -34 -293 -64 -294 -67 -2 -11 25 -149 31 -158 6
-10 593 106 606 120 11 10 -26 168 -39 167 -6 0 -143 -29 -304 -62z"/>
<path d="M826 7558 c-9 -45 -15 -83 -13 -84 5 -5 579 -124 597 -124 12 0 20
19 32 83 9 45 15 83 14 84 -2 3 -588 123 -600 123 -8 0 -19 -31 -30 -82z"/>
<path d="M743 6997 c-5 -45 -6 -85 -3 -88 5 -7 610 -72 616 -67 1 2 7 41 11
86 9 79 8 83 -11 87 -12 2 -136 16 -276 30 -140 14 -271 27 -292 30 l-36 5 -9
-83z"/>
<path d="M11725 7054 c-126 -13 -245 -26 -264 -30 l-34 -5 7 -82 c4 -45 9 -83
11 -85 4 -4 478 41 582 55 39 5 42 8 38 32 -2 14 -7 52 -10 84 l-6 57 -47 -1
c-26 -1 -150 -12 -277 -25z"/>
<path d="M10330 6405 l0 -135 893 2 892 3 3 133 3 132 -896 0 -895 0 0 -135z"/>
<path d="M1980 6523 c-52 -1 -367 -7 -699 -13 -333 -6 -606 -12 -607 -13 -2
-1 0 -62 3 -136 l6 -133 151 6 c83 3 482 11 886 17 404 6 738 14 741 18 3 3 3
63 1 134 l-4 127 -192 -2 c-105 -1 -234 -3 -286 -5z"/>
<path d="M11445 5895 c-4 -47 -6 -87 -4 -89 5 -5 612 -66 616 -63 7 7 20 162
14 168 -3 3 -130 18 -281 33 -151 15 -289 29 -307 32 l-31 5 -7 -86z"/>
<path d="M1032 5937 l-293 -31 7 -81 c3 -44 9 -83 13 -87 4 -4 135 6 291 22
157 16 295 30 308 30 23 0 23 2 17 58 -11 109 -15 122 -33 121 -9 -1 -149 -16
-310 -32z"/>
<path d="M1133 5396 c-160 -34 -295 -64 -298 -68 -5 -5 22 -156 30 -166 2 -2
578 115 601 123 13 4 -17 168 -32 171 -5 1 -140 -26 -301 -60z"/>
<path d="M11366 5379 c-10 -45 -15 -83 -12 -86 6 -7 599 -131 604 -127 2 1 12
39 22 84 13 59 15 82 7 86 -13 4 -588 124 -598 124 -3 0 -13 -36 -23 -81z"/>
<path d="M11227 4878 c-14 -45 -25 -83 -24 -84 1 -1 133 -43 292 -94 160 -51
293 -94 297 -97 10 -5 59 160 50 168 -4 4 -29 14 -57 22 -27 9 -149 47 -270
85 -121 39 -229 73 -240 76 -18 5 -24 -4 -48 -76z"/>
<path d="M1260 4858 c-157 -49 -287 -92 -289 -94 -6 -6 41 -154 51 -160 5 -3
43 6 86 20 42 13 172 55 287 92 116 36 212 68 214 70 8 8 -42 164 -53 163 -6
0 -139 -41 -296 -91z"/>
<path d="M9796 4453 c-36 -63 -65 -117 -64 -118 16 -13 1550 -886 1552 -884
11 15 126 222 126 227 -1 4 -326 193 -723 420 -397 227 -745 426 -773 442
l-50 30 -68 -117z"/>
<path d="M2167 4105 c-417 -249 -758 -457 -758 -461 -1 -20 127 -223 137 -220
15 6 1507 896 1517 905 8 8 -120 232 -132 230 -3 0 -347 -204 -764 -454z"/>
<path d="M11050 4405 c-16 -35 -30 -72 -32 -81 -2 -12 28 -30 117 -69 314
-138 448 -196 450 -193 14 15 64 153 58 159 -6 6 -326 148 -531 235 l-33 15
-29 -66z"/>
<path d="M1440 4320 c-151 -65 -275 -122 -275 -127 0 -14 60 -153 66 -153 6 0
562 240 568 246 8 7 -62 154 -73 154 -6 0 -135 -54 -286 -120z"/>
<path d="M2021 3322 c-135 -98 -246 -182 -248 -188 -6 -18 87 -136 103 -130
36 14 493 352 489 362 -5 17 -89 133 -95 133 -3 1 -115 -79 -249 -177z"/>
<path d="M10510 3429 c-29 -38 -49 -74 -44 -78 13 -11 477 -346 490 -354 11
-6 104 111 104 131 0 8 -181 143 -481 359 -15 11 -24 4 -69 -58z"/>
<path d="M8350 3028 c-58 -33 -106 -62 -108 -64 -3 -2 884 -1523 896 -1536 8
-8 227 118 227 131 0 17 -890 1531 -900 1531 -5 0 -57 -28 -115 -62z"/>
<path d="M10175 3029 c-31 -34 -53 -65 -48 -69 4 -5 109 -99 233 -210 l225
-202 58 63 c32 34 56 65 55 69 -5 10 -452 410 -459 410 -4 0 -32 -28 -64 -61z"/>
<path d="M4317 3058 c-23 -36 -848 -1508 -853 -1522 -3 -9 33 -35 105 -75 60
-33 113 -61 118 -61 7 1 853 1501 868 1540 4 11 -25 32 -102 75 -59 33 -111
61 -115 63 -4 2 -13 -7 -21 -20z"/>
<path d="M2353 2863 l-232 -207 53 -60 c29 -33 57 -61 62 -63 9 -3 456 391
462 407 3 8 -93 121 -108 128 -3 1 -110 -91 -237 -205z"/>
<path d="M2740 2484 c-113 -125 -205 -229 -205 -233 0 -12 114 -113 125 -109
6 2 103 104 215 228 l205 225 -62 57 c-35 32 -65 58 -68 58 -3 0 -97 -102
-210 -226z"/>
<path d="M9810 2652 l-63 -57 207 -228 c114 -125 212 -227 217 -227 19 0 120
103 115 117 -6 16 -398 451 -407 452 -4 1 -34 -25 -69 -57z"/>
<path d="M9417 2330 c-37 -28 -67 -53 -67 -56 0 -4 300 -416 350 -481 l18 -23
67 51 c39 30 64 56 61 64 -4 12 -338 470 -355 488 -4 4 -37 -15 -74 -43z"/>
<path d="M3161 2126 c-99 -135 -181 -249 -181 -253 1 -5 30 -30 66 -57 55 -40
68 -46 79 -35 26 29 355 480 355 488 0 9 -101 88 -124 97 -9 3 -75 -78 -195
-240z"/>
<path d="M4259 1762 c-148 -335 -230 -524 -227 -527 2 -3 38 -20 79 -39 l76
-34 123 276 c67 153 124 282 126 288 3 5 -31 27 -76 46 l-80 36 -21 -46z"/>
<path d="M8452 1774 c-40 -19 -71 -37 -69 -41 3 -5 60 -132 127 -283 67 -151
123 -276 125 -278 1 -1 37 12 79 30 60 26 76 37 72 51 -11 45 -242 556 -251
556 -5 0 -43 -16 -83 -35z"/>
<path d="M7970 1593 c-41 -14 -76 -27 -78 -28 -3 -2 185 -586 191 -591 2 -2
40 9 85 23 51 17 81 32 78 39 -3 7 -46 141 -97 298 -51 157 -95 286 -98 285
-3 0 -40 -12 -81 -26z"/>
<path d="M4760 1604 c0 -3 -37 -117 -81 -252 -45 -136 -87 -266 -94 -289 l-13
-42 77 -26 c42 -14 79 -25 83 -25 8 0 203 589 197 594 -2 2 -33 13 -68 25 -64
21 -101 26 -101 15z"/>
<path d="M5267 1463 c-2 -4 -33 -140 -68 -301 -48 -227 -60 -295 -50 -301 15
-10 151 -35 156 -29 2 2 32 132 65 288 34 157 63 292 66 302 4 13 -6 18 -43
26 -97 21 -121 24 -126 15z"/>
<path d="M7479 1456 c-30 -7 -62 -15 -71 -18 -13 -5 -5 -51 50 -310 35 -166
65 -304 66 -305 3 -4 155 33 162 39 4 5 -21 143 -57 308 -50 236 -67 300 -79
299 -8 -1 -40 -7 -71 -13z"/>
<path d="M5769 1368 c0 -7 -15 -146 -33 -308 -18 -162 -30 -298 -27 -302 3 -3
43 -10 89 -14 66 -5 82 -4 82 7 0 8 14 135 30 284 17 148 30 281 30 296 0 26
-3 28 -57 34 -32 3 -70 9 -85 11 -19 4 -28 1 -29 -8z"/>
<path d="M6933 1371 c-28 -4 -54 -9 -56 -11 -4 -4 41 -445 59 -578 l5 -43 77
7 c42 4 81 10 86 15 6 5 -3 127 -23 306 -17 164 -31 301 -31 306 0 8 -39 7
-117 -2z"/>
</g>
</svg>
