<?xml version="1.0" standalone="no"?>
<!DOCTYPE svg PUBLIC "-//W3C//DTD SVG 20010904//EN"
 "http://www.w3.org/TR/2001/REC-SVG-20010904/DTD/svg10.dtd">
<svg version="1.0" xmlns="http://www.w3.org/2000/svg"
 width="1280.000000pt" height="1280.000000pt" viewBox="0 0 1280.000000 1280.000000"
 preserveAspectRatio="xMidYMid meet">
<metadata>
Created by potrace 1.15, written by Peter Selinger 2001-2017
</metadata>
<g transform="translate(0.000000,1280.000000) scale(0.100000,-0.100000)"
fill="#000000" stroke="none">
<path d="M6095 12794 c-27 -2 -115 -8 -195 -14 -1184 -87 -2373 -533 -3325
-1249 -1279 -961 -2152 -2346 -2454 -3891 -86 -440 -115 -757 -115 -1240 0
-402 11 -569 60 -910 176 -1229 695 -2358 1518 -3305 124 -142 429 -449 576
-578 602 -530 1275 -933 2023 -1211 522 -193 1061 -315 1662 -373 253 -24 857
-24 1110 0 599 58 1142 180 1662 373 248 92 358 140 628 274 1435 710 2555
1939 3130 3435 366 951 499 1990 384 3010 -211 1878 -1228 3546 -2814 4615
-279 188 -766 449 -1080 578 -634 260 -1216 403 -1905 468 -145 14 -754 26
-865 18z m836 -379 c1250 -112 2404 -594 3369 -1405 174 -146 564 -536 710
-710 1122 -1335 1612 -3048 1364 -4770 -160 -1114 -621 -2140 -1360 -3025
-206 -246 -568 -599 -839 -817 -832 -670 -1847 -1111 -2906 -1263 -324 -46
-499 -58 -869 -58 -371 -1 -554 12 -875 59 -1582 232 -2994 1073 -3960 2359
-512 682 -873 1466 -1060 2304 -99 447 -138 813 -139 1306 0 494 39 869 139
1316 212 950 635 1807 1269 2569 149 180 546 579 725 729 763 641 1634 1073
2590 1286 345 76 634 114 1056 139 126 8 627 -4 786 -19z"/>
<path d="M5975 12259 c-1285 -101 -2426 -572 -3406 -1406 -145 -123 -496 -474
-622 -622 -822 -964 -1301 -2113 -1402 -3364 -20 -244 -20 -690 0 -934 102
-1259 587 -2415 1419 -3383 124 -145 456 -475 601 -599 888 -759 1933 -1226
3080 -1376 461 -60 1049 -60 1510 0 937 123 1832 467 2590 997 1459 1020 2368
2599 2510 4361 19 244 19 690 0 934 -93 1145 -513 2232 -1209 3127 -218 280
-570 651 -815 859 -986 838 -2130 1309 -3420 1407 -154 11 -686 11 -836 -1z
m730 -49 c1043 -57 2021 -377 2885 -944 187 -123 432 -307 595 -446 154 -133
502 -481 635 -635 296 -346 575 -766 776 -1168 344 -686 533 -1359 605 -2157
16 -177 17 -726 1 -910 -107 -1245 -554 -2336 -1346 -3290 -154 -186 -529
-562 -716 -716 -820 -681 -1750 -1110 -2785 -1283 -331 -55 -582 -75 -955 -75
-373 0 -624 20 -955 75 -1034 173 -1966 603 -2785 1283 -187 154 -562 530
-716 716 -294 354 -516 688 -715 1075 -361 703 -555 1382 -630 2205 -16 174
-16 746 0 920 73 803 260 1469 605 2158 202 402 479 820 776 1167 133 154 481
502 635 635 1135 971 2605 1471 4090 1390z"/>
<path d="M6095 12104 c-618 -40 -1167 -155 -1700 -356 -1619 -611 -2873 -1914
-3416 -3550 -298 -899 -367 -1878 -198 -2818 155 -858 511 -1680 1032 -2380
1289 -1733 3422 -2590 5547 -2229 1565 266 2949 1175 3822 2509 450 687 744
1463 867 2280 44 292 55 469 55 840 0 371 -11 548 -55 840 -66 439 -189 894
-349 1285 -33 83 -68 170 -78 195 -9 25 -19 47 -22 50 -3 3 -40 77 -84 165
-200 407 -480 832 -787 1190 -145 170 -478 499 -649 641 -915 762 -1967 1204
-3140 1319 -157 16 -706 28 -845 19z m764 -34 c57 -5 104 -11 105 -12 5 -7
-11 -269 -16 -274 -3 -3 -68 0 -144 6 -169 13 -648 13 -804 0 -63 -5 -122 -10
-131 -10 -13 0 -19 19 -28 98 -7 53 -14 116 -17 139 l-6 41 63 7 c230 24 738
27 978 5z m-1045 -155 c8 -71 12 -132 8 -136 -4 -3 -68 -13 -142 -23 -74 -9
-193 -28 -265 -41 -71 -13 -131 -23 -132 -21 -2 1 -14 54 -28 117 -14 63 -27
124 -30 135 -4 20 2 23 108 43 100 18 344 55 422 63 17 2 33 1 37 -2 3 -3 13
-63 22 -135z m1361 120 c115 -15 332 -51 366 -61 14 -4 13 -20 -12 -142 -14
-75 -31 -136 -36 -135 -59 11 -395 64 -447 70 l-69 8 2 85 c1 47 4 111 7 142
l6 56 32 -4 c17 -2 85 -11 151 -19z m-1975 -82 c0 -5 14 -66 30 -138 16 -71
28 -130 27 -131 -1 0 -47 -11 -102 -24 -86 -19 -353 -92 -390 -106 -11 -4 -60
117 -99 242 -6 20 1 24 78 48 90 28 422 115 444 115 6 1 12 -2 12 -6z m2611
-43 c252 -64 335 -92 331 -111 -3 -16 -83 -242 -87 -247 -1 -1 -72 17 -156 42
-85 24 -199 54 -254 66 -55 13 -104 26 -109 31 -7 6 29 241 41 262 8 13 38 8
234 -43z m-3150 -167 c12 -38 33 -97 45 -132 13 -36 23 -66 21 -67 -1 -1 -72
-27 -159 -58 -86 -31 -198 -74 -249 -96 -51 -22 -93 -39 -95 -37 -7 8 -125
250 -122 252 19 14 507 203 530 205 3 0 16 -30 29 -67z m3858 -62 c90 -37 159
-67 169 -76 9 -7 -112 -255 -122 -251 -79 35 -275 111 -361 141 -60 21 -114
41 -118 45 -5 4 12 66 38 138 l47 130 121 -43 c67 -24 169 -62 226 -84z
m-1744 89 c1584 -116 3002 -894 3952 -2170 515 -691 861 -1519 992 -2375 47
-304 55 -425 56 -815 0 -382 -6 -484 -46 -765 -229 -1622 -1185 -3049 -2604
-3887 -672 -397 -1410 -634 -2235 -720 -168 -17 -812 -17 -980 0 -845 88
-1578 328 -2275 745 -1006 601 -1801 1534 -2235 2621 -208 523 -331 1064 -371
1641 -15 214 -6 707 16 905 99 894 381 1686 860 2410 664 1005 1644 1762 2770
2139 473 158 839 230 1400 274 100 8 574 6 700 -3z m2177 -286 c73 -36 196
-103 273 -147 138 -78 478 -298 489 -315 6 -9 -153 -228 -163 -225 -3 1 -77
49 -163 106 -193 129 -433 267 -636 364 l-152 73 14 33 c7 17 33 75 56 128
l42 97 53 -24 c29 -12 113 -53 187 -90z m-4812 -14 c33 -66 60 -122 60 -125 0
-3 -69 -38 -152 -78 -201 -96 -426 -225 -623 -356 -88 -58 -165 -109 -172
-114 -7 -4 -38 31 -87 103 -42 60 -76 114 -76 119 0 15 318 223 490 321 136
78 475 250 492 250 4 0 35 -54 68 -120z m-996 -579 c42 -60 76 -111 76 -113 0
-3 -54 -46 -120 -97 -65 -51 -155 -124 -199 -162 -45 -38 -84 -69 -89 -69 -5
0 -53 42 -107 93 l-99 93 42 38 c115 104 396 326 413 326 4 0 42 -49 83 -109z
m6714 25 c94 -73 211 -167 286 -234 l37 -32 -92 -100 c-51 -55 -96 -100 -101
-100 -5 0 -46 32 -91 71 -45 39 -135 112 -200 162 -70 55 -116 96 -113 104 15
37 153 212 164 208 7 -3 57 -38 110 -79z m552 -485 c110 -109 200 -203 199
-207 0 -9 -202 -174 -211 -174 -3 0 -91 86 -197 190 l-192 191 92 99 c51 55
96 100 101 100 5 0 98 -89 208 -199z m-7719 92 l96 -98 -194 -191 -194 -192
-104 90 -104 91 57 65 c60 69 331 332 341 332 4 0 50 -44 102 -97z m-410 -409
c55 -47 99 -88 99 -92 0 -4 -36 -49 -80 -100 -44 -51 -118 -142 -165 -203 -61
-77 -90 -107 -100 -102 -30 17 -214 148 -215 153 -1 18 338 429 354 430 4 0
53 -38 107 -86z m8425 1 c305 -351 573 -753 793 -1192 l81 -163 -28 -14 c-15
-8 -73 -35 -130 -59 l-102 -46 -54 114 c-107 226 -283 525 -435 739 l-70 100
107 78 c59 43 109 84 111 90 6 19 -21 3 -123 -71 -54 -39 -102 -71 -106 -71
-4 0 -45 48 -91 108 -72 91 -157 194 -231 278 -19 21 -18 22 89 108 59 47 110
85 113 84 4 -2 38 -39 76 -83z m-8784 -448 c54 -37 100 -72 103 -77 3 -5 -24
-50 -61 -102 -146 -206 -324 -510 -430 -733 l-54 -113 -127 50 c-71 28 -130
53 -132 55 -8 6 157 331 241 478 150 261 332 530 351 518 7 -4 56 -38 109 -76z
m9694 -994 c70 -156 181 -459 171 -469 -11 -11 -257 -82 -261 -75 -2 3 -27 67
-54 141 -28 74 -71 184 -96 243 l-45 108 77 34 c42 19 95 44 117 54 22 11 46
20 53 20 7 1 24 -25 38 -56z m-10300 11 c49 -20 103 -42 121 -49 l32 -14 -45
-108 c-25 -59 -69 -171 -97 -248 -28 -77 -51 -141 -52 -142 -2 -4 -260 69
-266 75 -14 15 186 522 206 522 6 0 51 -16 101 -36z m10497 -526 c3 -13 26
-93 51 -178 49 -166 91 -339 84 -346 -5 -4 -203 -49 -246 -56 -22 -3 -25 5
-67 167 -24 94 -57 211 -73 262 l-29 92 56 17 c31 9 90 27 131 40 94 28 87 28
93 2z m-10715 -12 c48 -14 106 -29 128 -35 l42 -11 -30 -93 c-16 -50 -49 -168
-73 -262 -29 -113 -48 -170 -57 -169 -7 1 -68 11 -135 24 -112 21 -123 25
-123 44 0 54 136 526 151 526 6 0 49 -11 97 -24z m10872 -588 c21 -98 68 -393
72 -448 l3 -54 -132 -20 c-73 -11 -135 -17 -138 -15 -2 3 -14 70 -25 150 -12
79 -31 197 -44 261 l-23 117 96 21 c53 12 110 25 126 30 50 14 53 12 65 -42z
m-10985 17 c71 -14 130 -25 130 -25 1 0 -9 -53 -21 -117 -13 -65 -32 -183 -44
-263 -12 -79 -23 -146 -26 -149 -6 -6 -258 30 -267 39 -12 11 51 425 79 523 7
21 -6 22 149 -8z m-82 -564 c64 -10 119 -20 121 -22 2 -2 -1 -40 -6 -84 -23
-213 -25 -789 -3 -972 l6 -52 -43 -5 c-24 -3 -86 -8 -140 -11 -87 -6 -97 -4
-102 12 -13 47 -28 485 -22 662 7 199 22 428 31 469 6 26 7 26 158 3z m11151
2 c36 -120 39 -1113 4 -1149 -5 -5 -267 31 -273 38 -1 2 1 53 6 113 18 228 7
848 -16 953 -3 12 -4 22 -3 23 23 5 230 37 250 38 17 1 28 -5 32 -16z m4
-1178 c9 -8 -71 -541 -83 -554 -7 -6 -265 41 -270 50 -3 3 4 56 15 115 17 90
60 396 60 423 0 6 269 -27 278 -34z m-11017 -132 c10 -82 28 -199 39 -258 10
-60 18 -110 17 -111 -4 -4 -272 -53 -275 -50 -11 11 -88 543 -80 552 4 3 271
20 276 18 2 -1 12 -69 23 -151z m91 -516 c15 -67 46 -185 68 -262 21 -76 38
-140 37 -141 -11 -11 -261 -74 -267 -68 -15 15 -113 383 -135 506 -7 36 -7 37
32 44 21 4 79 15 128 25 50 9 95 18 100 18 6 1 22 -54 37 -122z m10707 92 c64
-12 120 -25 124 -29 13 -12 -115 -525 -136 -546 -3 -3 -64 13 -136 36 -108 34
-131 45 -127 58 30 98 80 284 102 381 19 85 32 121 42 121 8 0 66 -10 131 -21z
m-10549 -641 c23 -68 64 -178 91 -246 27 -68 49 -127 49 -132 0 -6 -55 -37
-121 -71 -95 -47 -124 -58 -130 -47 -28 43 -208 534 -198 541 4 4 248 75 260
76 4 1 26 -54 49 -121z m10411 75 c139 -43 133 -12 48 -249 -75 -207 -124
-320 -138 -317 -28 7 -241 106 -241 113 0 5 29 82 64 172 35 89 76 200 91 246
21 64 31 82 42 78 9 -4 69 -23 134 -43z m-10225 -545 c92 -211 296 -575 447
-796 39 -58 66 -107 61 -111 -5 -5 -56 -43 -113 -85 l-103 -76 -31 43 c-66 90
-198 299 -277 437 -87 150 -260 496 -260 517 0 11 220 131 242 132 4 1 19 -27
34 -61z m10005 11 c63 -28 118 -55 123 -59 18 -17 -219 -476 -377 -730 -46
-74 -176 -269 -193 -288 -2 -3 -95 59 -232 154 -2 1 30 51 71 110 151 221 357
587 451 802 15 34 31 62 35 62 4 0 59 -23 122 -51z m-9405 -1021 c38 -51 115
-149 172 -217 57 -67 102 -124 100 -125 -2 -1 -49 -41 -105 -89 -56 -48 -104
-87 -107 -87 -8 0 -191 221 -280 338 l-76 102 112 84 c62 47 113 85 114 86 0
0 32 -42 70 -92z m8836 -5 l108 -74 -77 -101 c-103 -136 -271 -338 -282 -338
-10 0 -205 158 -209 170 -2 5 43 64 100 132 57 67 132 162 167 210 36 48 69
84 75 81 6 -4 59 -40 118 -80z m-8173 -741 c1 -4 -38 -53 -86 -109 l-87 -102
-65 59 c-60 53 -131 125 -294 296 l-59 61 107 91 107 91 188 -190 c104 -105
189 -194 189 -197z m7797 296 c57 -46 102 -89 101 -95 -3 -17 -262 -289 -333
-349 l-55 -47 -98 97 -97 97 185 189 c102 104 188 189 190 189 2 1 50 -36 107
-81z m-7654 -411 c84 -72 274 -224 296 -236 10 -6 -6 -36 -69 -124 l-82 -116
-45 32 c-54 39 -268 214 -345 282 l-56 50 92 107 c90 104 92 106 112 89 11
-10 55 -48 97 -84z m7289 -155 c-82 -73 -295 -247 -353 -289 l-44 -32 -87 104
c-48 58 -87 109 -87 114 0 5 12 17 28 26 38 25 242 190 332 269 l75 65 100
-100 100 -100 -64 -57z m-6820 -203 c177 -123 405 -258 619 -367 102 -51 186
-97 188 -102 4 -10 -86 -231 -99 -244 -10 -11 -263 111 -449 217 -234 133
-564 350 -558 367 12 33 155 227 164 221 5 -3 66 -45 135 -92z m6313 -21 c47
-56 86 -105 86 -109 0 -13 -246 -178 -435 -292 -161 -97 -498 -275 -550 -291
-18 -5 -28 10 -82 118 l-62 124 183 91 c209 105 478 262 646 380 63 44 118 80
122 81 3 0 45 -46 92 -102z m-5320 -517 c78 -32 191 -75 251 -96 61 -21 111
-39 112 -40 2 -1 -17 -60 -41 -131 -40 -120 -45 -129 -67 -126 -43 5 -496 177
-516 196 -7 6 102 256 111 256 5 0 73 -26 150 -59z m4316 -61 c33 -66 60 -123
60 -128 0 -14 -393 -171 -515 -206 -18 -5 -25 8 -63 117 -23 67 -42 127 -42
133 0 6 53 30 118 53 64 23 173 66 242 95 69 30 128 54 132 55 5 0 35 -53 68
-119z m-3520 -196 c63 -15 116 -28 117 -28 1 -1 -11 -60 -27 -131 -16 -72 -30
-133 -30 -138 0 -4 -10 -5 -22 -2 -168 37 -349 85 -475 126 l-61 20 44 133 45
133 147 -43 c81 -24 199 -56 262 -70z m2980 -22 c34 -98 40 -126 30 -132 -30
-19 -446 -132 -519 -142 -23 -3 -26 2 -52 112 -16 63 -28 124 -29 136 0 19 14
24 133 53 72 18 188 49 257 70 69 21 128 35 131 32 3 -3 25 -62 49 -129z
m-2650 -46 c80 -13 186 -30 235 -36 50 -6 95 -13 101 -15 7 -2 6 -40 -2 -126
-7 -68 -13 -130 -13 -136 -1 -18 -46 -16 -202 7 -118 18 -361 60 -366 64 -2 1
39 202 52 254 5 19 11 23 28 19 12 -3 87 -17 167 -31z m2059 -3 c22 -78 55
-233 50 -237 -17 -16 -553 -96 -565 -84 -6 7 -33 202 -34 248 0 26 1 26 138
44 75 9 191 28 257 40 66 13 125 24 132 25 7 0 17 -16 22 -36z m-1519 -63
c167 -14 610 -13 789 0 79 6 146 8 149 5 5 -5 42 -267 38 -272 -8 -11 -362
-27 -586 -27 -232 0 -575 16 -586 27 -2 2 22 256 25 275 1 4 41 2 171 -8z"/>
<path d="M6245 12025 c-33 -32 -36 -114 -5 -145 45 -45 143 -14 143 45 0 38
-28 57 -76 53 -33 -3 -37 -1 -35 17 3 18 9 20 57 17 55 -3 55 -3 36 18 -27 29
-89 27 -120 -5z m81 -79 c15 -12 17 -18 8 -33 -16 -26 -50 -28 -63 -4 -8 15
-7 23 5 35 19 20 25 20 50 2z"/>
<path d="M6431 12024 c-29 -36 -29 -116 -1 -144 26 -26 89 -27 121 -1 19 16
23 28 23 76 0 48 -4 60 -23 76 -36 29 -95 25 -120 -7z m89 -24 c15 -29 8 -91
-11 -103 -32 -20 -49 -1 -49 56 0 30 3 57 7 60 13 14 43 6 53 -13z"/>
<path d="M6650 11441 c-98 -32 -162 -110 -176 -214 -6 -43 -6 -44 26 -51 18
-3 52 -6 76 -6 42 0 44 1 53 38 19 68 64 99 126 88 51 -10 75 -47 75 -115 0
-74 -28 -122 -151 -253 -169 -182 -219 -268 -219 -378 l0 -70 273 2 272 3 0
75 0 75 -177 3 c-141 2 -178 5 -178 16 0 20 33 60 156 186 76 79 122 136 145
180 32 61 34 71 34 165 0 78 -4 108 -19 135 -46 86 -107 122 -216 126 -41 2
-86 0 -100 -5z"/>
<path d="M5962 11359 l-102 -81 0 -69 c0 -38 3 -69 7 -69 5 0 29 17 151 108
l32 24 0 -326 0 -326 -95 0 -95 0 0 -70 0 -70 265 0 265 0 0 70 0 70 -90 0
-90 0 -2 408 -3 407 -71 3 -70 3 -102 -82z"/>
<path d="M3655 10643 l-97 -78 -2 -73 c0 -39 1 -72 4 -72 2 0 38 26 80 58 41
32 81 62 88 66 9 6 12 -60 12 -313 l0 -320 -92 -3 -93 -3 -3 -72 -3 -73 266 0
266 0 -3 73 -3 72 -87 3 -88 3 0 404 0 405 -74 0 -74 0 -97 -77z"/>
<path d="M4226 10643 l-96 -76 0 -75 0 -74 38 27 c20 16 55 43 77 60 22 17 46
35 53 39 9 6 12 -60 12 -316 l0 -323 -92 0 -93 0 -3 -72 -3 -73 266 0 266 0
-3 73 -3 72 -87 3 -88 3 0 404 0 405 -74 0 -73 0 -97 -77z"/>
<path d="M8651 10640 l-101 -80 0 -70 c0 -39 3 -70 7 -70 3 0 40 26 82 58 42
32 82 62 89 66 9 6 12 -60 12 -313 l0 -321 -95 0 -95 0 0 -75 0 -75 263 2 262
3 0 70 0 70 -87 3 -88 3 0 404 0 405 -74 0 -75 0 -100 -80z"/>
<path d="M10231 9137 c-53 -17 -115 -83 -140 -150 -30 -81 -28 -107 7 -107 26
-1 26 -1 7 -16 -11 -8 -207 -120 -435 -248 -608 -341 -1627 -927 -2698 -1552
-276 -162 -505 -294 -507 -294 -3 0 -5 38 -5 85 l0 85 35 22 35 23 0 628 0
627 -105 0 -105 0 0 -627 0 -628 30 -20 c30 -20 30 -21 30 -113 l0 -94 -32 20
c-18 11 -220 123 -448 249 -571 316 -1251 698 -1772 994 -261 149 -447 249
-462 249 -29 0 -35 -23 -13 -51 7 -8 127 -102 267 -209 445 -338 2071 -1588
2128 -1636 2 -1 -39 -61 -92 -133 -53 -72 -96 -135 -96 -141 0 -5 10 -10 23
-10 21 0 347 33 450 45 l47 6 0 -1906 0 -1905 -22 0 c-40 -1 -102 -35 -141
-79 -77 -86 -109 -206 -109 -421 -1 -164 11 -238 53 -327 48 -102 126 -153
231 -153 151 0 247 110 256 294 8 164 -35 267 -132 312 l-53 24 -2 76 c-1 51
1 74 8 69 6 -3 11 -13 11 -21 0 -17 5 -17 87 -3 35 6 63 15 63 20 0 4 -9 32
-20 62 -21 56 -64 104 -117 131 l-33 16 0 1906 c0 1584 2 1906 14 1910 11 4
377 -39 434 -51 35 -8 27 19 -43 145 -35 63 -61 118 -57 122 7 6 1181 853
2619 1889 444 320 813 589 820 598 17 22 16 48 -3 59 -15 8 -15 12 -1 39 35
67 143 71 178 6 18 -34 16 -112 -6 -156 -10 -21 -68 -93 -129 -160 -180 -197
-226 -275 -226 -387 l0 -70 273 2 272 3 3 78 3 77 -181 0 c-193 0 -197 1 -163
50 9 14 71 81 137 150 150 155 179 207 185 327 4 109 -15 168 -74 221 -23 22
-60 45 -81 51 -49 14 -158 12 -203 -2z m-3851 -7061 l0 -104 -31 -11 c-17 -6
-44 -25 -61 -43 l-31 -33 6 81 c3 45 14 100 23 123 15 39 64 91 85 91 5 0 9
-47 9 -104z m0 -406 c0 -189 -4 -198 -60 -142 -54 54 -69 191 -27 253 20 30
59 58 80 59 4 0 7 -76 7 -170z m103 93 c21 -75 17 -165 -8 -199 -10 -15 -12 3
-12 99 0 107 8 145 20 100z"/>
<path d="M2594 9055 c-94 -47 -137 -144 -157 -348 -13 -143 1 -318 34 -415 43
-126 121 -192 229 -192 180 1 271 166 270 494 -1 164 -19 270 -62 355 -46 92
-92 122 -190 128 -64 4 -79 1 -124 -22z m170 -149 c36 -35 49 -119 49 -311 0
-192 -12 -271 -50 -315 -32 -38 -89 -42 -120 -7 -38 41 -46 86 -51 273 -7 292
19 384 109 384 29 0 47 -7 63 -24z"/>
<path d="M1928 8989 l-98 -80 0 -70 c0 -38 3 -69 6 -69 3 0 40 26 82 58 42 32
83 62 90 66 9 6 12 -61 12 -318 l0 -326 -95 0 -95 0 0 -70 0 -70 259 0 259 0
4 70 3 70 -87 0 -88 0 -2 408 -3 407 -75 2 -75 2 -97 -80z"/>
<path d="M1509 6850 c-59 -10 -96 -30 -135 -72 -63 -66 -91 -165 -80 -285 11
-130 69 -232 149 -262 72 -28 166 -6 217 51 30 32 30 32 30 8 0 -52 -22 -154
-39 -189 -28 -54 -57 -76 -101 -76 -44 0 -68 18 -87 63 -7 17 -16 32 -20 32
-3 0 -35 -5 -71 -11 l-64 -11 6 -32 c20 -101 90 -172 187 -188 169 -29 286 82
326 309 22 124 13 362 -16 455 -52 162 -153 232 -302 208z m91 -155 c81 -42
103 -224 37 -300 -33 -40 -94 -45 -133 -12 -96 81 -55 326 54 327 7 0 26 -7
42 -15z"/>
<path d="M11102 6754 c-72 -36 -125 -109 -138 -192 l-6 -40 70 -7 c39 -4 75
-4 80 -1 5 3 12 19 16 36 9 48 48 80 96 80 54 0 79 -14 96 -55 26 -63 13 -139
-31 -175 -9 -7 -44 -16 -78 -19 l-62 -6 0 -75 0 -75 68 -6 c60 -5 72 -10 100
-38 29 -28 32 -37 32 -90 0 -70 -17 -105 -62 -126 -66 -32 -155 8 -169 74 -12
54 -9 53 -86 45 -40 -3 -76 -8 -80 -10 -9 -5 15 -102 34 -139 21 -39 73 -88
118 -110 19 -10 65 -20 101 -23 192 -14 304 87 304 273 0 69 -4 86 -27 127
-29 48 -72 81 -122 94 l-29 7 39 18 c104 50 147 168 109 297 -32 107 -115 162
-246 162 -61 0 -85 -5 -127 -26z"/>
<path d="M2246 4479 c-95 -23 -154 -81 -177 -172 -26 -105 16 -231 88 -266 34
-17 43 -31 18 -31 -23 0 -84 -59 -108 -104 -16 -32 -21 -59 -21 -121 -1 -100
21 -161 74 -209 60 -54 103 -69 201 -70 74 0 93 3 142 28 94 45 137 125 137
251 0 106 -41 184 -111 214 -22 9 -39 18 -39 21 0 3 15 12 33 20 17 8 45 34
62 58 24 35 30 55 33 113 6 97 -12 154 -64 205 -58 59 -176 87 -268 63z m148
-160 c49 -58 30 -210 -28 -225 -79 -20 -132 15 -143 94 -13 100 25 162 101
162 37 0 48 -5 70 -31z m-14 -382 c37 -18 60 -72 60 -140 0 -103 -39 -157
-113 -157 -84 0 -122 48 -122 155 0 105 37 154 115 154 19 1 46 -5 60 -12z"/>
<path d="M10312 4096 l-162 -304 0 -76 0 -76 175 0 175 0 0 -95 0 -95 75 0 75
0 0 95 0 95 50 0 50 0 0 70 0 70 -50 0 -50 0 0 310 0 310 -88 0 -87 0 -163
-304z m190 -101 l-3 -215 -110 0 c-102 0 -111 1 -105 18 7 18 217 412 219 412
1 0 1 -97 -1 -215z"/>
<path d="M8479 2858 c0 -18 -6 -136 -13 -263 -7 -126 -11 -233 -9 -237 1 -3
33 -6 70 -6 60 0 72 4 100 28 44 39 84 46 130 23 54 -26 76 -70 76 -152 0
-112 -44 -174 -124 -174 -50 0 -88 26 -108 75 l-16 39 -70 -6 c-38 -4 -73 -10
-78 -14 -4 -4 0 -30 8 -57 37 -124 128 -189 265 -187 85 1 131 17 185 65 77
67 116 203 95 334 -14 87 -41 143 -90 188 -68 61 -188 74 -251 27 -17 -13 -33
-21 -35 -18 -3 3 -2 55 2 116 l7 111 163 0 164 0 0 70 0 70 -235 0 -235 0 -1
-32z"/>
<path d="M3812 2743 l3 -78 191 -5 190 -5 -67 -124 c-119 -218 -184 -409 -196
-573 l-6 -88 82 0 81 0 0 43 c0 150 65 368 180 606 76 156 80 167 80 232 l0
69 -270 0 -271 0 3 -77z"/>
<path d="M9092 11281 c-33 -41 -29 -51 17 -51 42 0 62 -60 25 -74 -20 -8 -54
11 -54 29 0 14 -37 31 -46 22 -11 -10 26 -64 51 -75 60 -28 115 -4 115 51 0
26 -40 67 -66 67 -8 0 -14 4 -14 9 0 21 21 21 60 1 38 -19 60 -20 60 -1 0 9
-92 61 -107 61 -5 0 -24 -18 -41 -39z"/>
<path d="M3667 11323 c-51 -29 -52 -32 -27 -98 12 -32 23 -32 53 1 30 32 67
26 67 -11 0 -26 -30 -48 -52 -40 -7 3 -22 -1 -33 -9 -19 -14 -19 -15 8 -21 38
-10 75 1 103 32 31 33 28 69 -7 95 -24 18 -28 19 -63 4 -46 -19 -50 -20 -54
-8 -2 6 17 22 42 37 25 15 43 31 40 36 -9 14 -26 10 -77 -18z"/>
<path d="M3505 11232 c-54 -30 -58 -41 -32 -104 l13 -33 25 26 c35 37 56 42
74 17 13 -20 13 -24 -2 -41 -11 -11 -25 -16 -38 -13 -12 3 -30 -1 -41 -8 -18
-14 -18 -15 9 -25 52 -20 127 30 127 85 0 47 -63 70 -108 38 -21 -14 -42 -12
-42 5 0 5 20 19 45 32 42 22 52 39 29 46 -5 1 -31 -10 -59 -25z"/>
<path d="M11114 9395 c3 -8 9 -22 12 -30 4 -9 -11 -24 -45 -45 -54 -34 -59
-41 -37 -59 19 -16 168 72 159 94 -3 8 -13 15 -23 15 -9 0 -25 9 -35 20 -21
24 -40 26 -31 5z"/>
<path d="M11164 9230 c-42 -27 -60 -70 -44 -102 39 -73 98 -79 168 -15 29 27
28 68 -4 106 -31 37 -73 41 -120 11z m105 -38 c12 -23 5 -34 -39 -61 -42 -25
-66 -27 -74 -5 -10 27 -7 32 31 59 44 30 69 32 82 7z"/>
<path d="M1595 9346 c-53 -53 -38 -111 39 -150 50 -25 84 -13 111 37 18 34 19
39 5 64 -20 35 -76 73 -107 73 -13 0 -35 -11 -48 -24z m82 -41 c45 -27 55 -53
28 -75 -12 -10 -23 -7 -60 14 -45 27 -56 51 -33 74 16 16 14 16 65 -13z"/>
<path d="M1483 9168 l-32 -53 37 -38 c34 -34 38 -36 49 -20 7 9 13 24 13 34 0
24 26 42 50 34 34 -11 25 -52 -17 -74 -27 -14 -30 -41 -5 -41 24 0 69 48 77
82 8 30 -7 63 -35 78 -28 15 -66 -3 -85 -41 -13 -24 -19 -29 -28 -20 -9 9 -6
22 11 52 21 36 22 59 4 59 -4 0 -21 -24 -39 -52z"/>
<path d="M849 6581 c-18 -14 -24 -29 -24 -60 0 -31 -3 -41 -14 -39 -9 2 -14
19 -15 53 -1 39 -5 50 -18 53 -16 3 -18 -5 -18 -62 0 -36 3 -67 8 -69 4 -3 28
-8 55 -12 43 -7 47 -6 47 13 0 12 -4 24 -10 27 -15 9 -12 41 5 55 24 20 55 3
55 -31 0 -16 -4 -29 -10 -29 -5 0 -10 -11 -10 -25 0 -30 11 -32 33 -7 11 12
17 36 17 65 0 37 -5 49 -26 66 -33 26 -45 26 -75 2z"/>
<path d="M880 6395 c0 -12 -13 -15 -60 -15 -59 0 -60 -1 -60 -27 0 -22 12 -37
57 -72 76 -58 87 -58 91 2 3 39 6 47 23 47 14 0 19 7 19 25 0 18 -5 25 -20 25
-11 0 -20 7 -20 15 0 8 -7 15 -15 15 -8 0 -15 -7 -15 -15z m0 -96 l0 -30 -35
27 c-19 14 -35 28 -35 30 0 2 16 4 35 4 32 0 35 -2 35 -31z"/>
<path d="M11968 6583 c-3 -27 -6 -28 -65 -31 -55 -3 -63 -6 -63 -22 0 -18 7
-20 90 -20 95 0 104 5 75 44 -8 11 -15 28 -15 38 0 29 -18 21 -22 -9z"/>
<path d="M11849 6413 c-21 -24 -18 -97 5 -122 23 -26 67 -27 89 -3 10 10 17
35 17 55 0 26 4 37 15 37 11 0 15 -12 15 -50 0 -38 4 -50 15 -50 12 0 15 14
15 64 l0 64 -36 6 c-19 4 -42 10 -51 13 -13 5 -14 -1 -8 -44 5 -37 3 -52 -8
-61 -33 -28 -73 24 -43 57 20 22 21 51 2 51 -7 0 -20 -7 -27 -17z"/>
<path d="M1461 3761 c-11 -7 -8 -16 13 -47 22 -33 24 -40 11 -53 -20 -23 -1
-55 24 -42 12 7 22 6 29 -1 8 -8 14 -4 21 14 5 14 28 36 50 48 36 21 38 25 29
46 -6 13 -18 26 -27 28 -38 11 -137 16 -150 7z m118 -31 c10 0 3 -9 -17 -21
-32 -21 -33 -21 -47 -3 -22 29 -18 37 16 30 17 -3 39 -6 48 -6z"/>
<path d="M1614 3626 c-35 -15 -74 -60 -74 -85 0 -28 38 -80 64 -87 33 -8 61 2
102 38 37 33 42 54 19 98 -25 49 -57 59 -111 36z m79 -48 c16 -24 2 -45 -43
-68 -33 -17 -45 -19 -56 -9 -25 21 -16 47 29 73 45 28 55 28 70 4z"/>
<path d="M11196 3809 c-45 -53 -32 -105 34 -139 52 -27 66 -25 101 9 49 50 35
112 -35 145 -49 23 -71 20 -100 -15z m92 -39 c46 -33 49 -41 26 -64 -21 -21
-25 -21 -72 14 -43 31 -51 47 -30 68 18 18 31 15 76 -18z"/>
<path d="M11098 3663 c-39 -45 -48 -92 -23 -113 21 -18 29 -6 30 43 0 38 2 42
25 42 24 0 25 -3 28 -72 2 -48 8 -75 18 -84 8 -6 16 -10 18 -8 1 2 22 33 46
68 33 50 39 65 29 72 -10 6 -19 2 -29 -13 -8 -12 -23 -31 -32 -42 -17 -20 -18
-19 -16 35 1 35 -3 63 -11 73 -18 21 -64 20 -83 -1z"/>
<path d="M3484 1738 c-12 -19 25 -39 47 -25 15 9 22 8 35 -5 23 -23 4 -47 -31
-40 -29 5 -32 -4 -9 -29 18 -20 13 -49 -8 -49 -21 0 -39 16 -42 34 -2 17 -23
36 -38 36 -5 0 -8 -10 -8 -23 0 -36 64 -87 108 -87 29 0 54 33 47 62 -5 20 -2
26 14 31 21 5 29 41 13 63 -26 37 -111 59 -128 32z"/>
<path d="M3660 1625 c-37 -38 -35 -44 13 -60 24 -7 33 -17 35 -36 2 -17 -3
-29 -13 -33 -20 -7 -55 10 -55 27 0 7 -9 18 -20 25 -17 10 -21 10 -26 -2 -14
-36 47 -86 104 -86 34 0 62 27 62 59 0 24 -44 71 -68 71 -12 0 -12 3 -2 15 11
13 18 11 55 -11 27 -16 46 -21 50 -14 3 5 4 14 0 19 -4 7 -92 61 -99 61 -1 0
-17 -16 -36 -35z"/>
<path d="M9223 1740 l-51 -29 14 -47 c8 -26 16 -49 18 -51 2 -2 17 8 34 22 34
28 54 31 71 11 22 -26 -19 -69 -49 -51 -5 3 -19 0 -31 -9 l-21 -14 22 -12 c44
-23 130 30 130 80 0 53 -61 77 -109 44 -19 -14 -25 -14 -32 -3 -6 10 4 21 36
39 42 23 52 40 29 47 -5 1 -32 -11 -61 -27z"/>
<path d="M9065 1656 c-46 -20 -69 -51 -61 -81 6 -22 9 -24 26 -15 11 6 20 21
20 35 0 15 7 26 20 30 46 15 53 -25 15 -85 -24 -38 -34 -90 -17 -90 15 0 142
71 142 80 0 20 -20 19 -55 -1 -20 -12 -38 -19 -41 -17 -2 3 7 25 21 49 30 53
31 63 5 89 -23 23 -34 24 -75 6z"/>
<path d="M6265 938 c-21 -12 -35 -28 -35 -40 0 -15 48 -8 54 8 8 21 50 14 54
-8 2 -12 -6 -21 -22 -28 -30 -11 -35 -30 -7 -30 10 0 25 -7 32 -16 11 -14 10
-18 -6 -30 -24 -18 -30 -18 -49 1 -16 16 -56 21 -56 6 0 -14 27 -39 51 -46 61
-20 133 30 109 74 -6 12 -16 21 -22 21 -6 0 -3 9 6 19 45 50 -44 106 -109 69z"/>
<path d="M6462 940 c-30 -12 -45 -55 -39 -109 13 -117 167 -101 167 17 0 48
-12 72 -41 87 -32 17 -54 18 -87 5z m66 -32 c19 -19 15 -105 -5 -117 -32 -18
-53 5 -53 57 0 47 12 72 35 72 6 0 16 -5 23 -12z"/>
</g>
</svg>
